{
    "asset" : {
        "generator" : "Khronos glTF Blender I/O v0.9.36",
        "version" : "2.0"
    },
    "scene" : 0,
    "scenes" : [
        {
            "name" : "Scene",
            "nodes" : [
                0,
                1,
                2,
                3,
                4
            ]
        }
    ],
    "nodes" : [
        {
            "mesh" : 0,
            "name" : "room",
            "scale" : [
                0.36402788758277893,
                0.36402788758277893,
                0.3640272319316864
            ]
        },
        {
            "mesh" : 1,
            "name" : "roof",
            "translation" : [
                0,
                5.324466705322266,
                0
            ]
        },
        {
            "mesh" : 2,
            "name" : "ground",
            "scale" : [
                38.13117599487305,
                38.13117599487305,
                38.13117599487305
            ]
        },
        {
            "mesh" : 3,
            "name" : "backdrop",
            "scale" : [
                2.6739041805267334,
                1.1370371580123901,
                2.6739041805267334
            ],
            "translation" : [
                0,
                0.4464931786060333,
                0
            ]
        },
        {
            "mesh" : 4,
            "name" : "sky",
            "rotation" : [
                0.9920178055763245,
                -0.12587285041809082,
                -0.0009476666455157101,
                0.007468665484338999
            ],
            "scale" : [
                18.234207153320312,
                18.234203338623047,
                18.23420524597168
            ],
            "translation" : [
                0.18752391636371613,
                5.461792469024658,
                -0.4305788278579712
            ]
        }
    ],
    "materials" : [
        {
            "doubleSided" : true,
            "name" : "floor",
            "pbrMetallicRoughness" : {
                "baseColorTexture" : {
                    "index" : 0,
                    "texCoord" : 0
                },
                "metallicFactor" : 0,
                "roughnessFactor" : 0.5
            }
        },
        {
            "doubleSided" : true,
            "name" : "Interior",
            "pbrMetallicRoughness" : {
                "baseColorTexture" : {
                    "index" : 1,
                    "texCoord" : 0
                },
                "metallicFactor" : 0,
                "roughnessFactor" : 0.5
            }
        },
        {
            "doubleSided" : true,
            "name" : "exterior",
            "pbrMetallicRoughness" : {
                "baseColorTexture" : {
                    "index" : 2,
                    "texCoord" : 0
                },
                "metallicFactor" : 0,
                "roughnessFactor" : 0
            }
        },
        {
            "doubleSided" : true,
            "name" : "entry",
            "pbrMetallicRoughness" : {
                "baseColorTexture" : {
                    "index" : 3,
                    "texCoord" : 0
                },
                "metallicFactor" : 0,
                "roughnessFactor" : 0.5
            }
        },
        {
            "doubleSided" : true,
            "name" : "windowpane",
            "pbrMetallicRoughness" : {
                "baseColorFactor" : [
                    0.02909950166940689,
                    0.012951459735631943,
                    0.007654310204088688,
                    1
                ],
                "metallicFactor" : 0,
                "roughnessFactor" : 0.5
            }
        },
        {
            "doubleSided" : true,
            "name" : "trim",
            "pbrMetallicRoughness" : {
                "baseColorFactor" : [
                    0.035217996686697006,
                    0.035217996686697006,
                    0.035217996686697006,
                    1
                ],
                "metallicFactor" : 0,
                "roughnessFactor" : 0.5
            }
        },
        {
            "doubleSided" : true,
            "name" : "roof",
            "pbrMetallicRoughness" : {
                "baseColorTexture" : {
                    "index" : 4,
                    "texCoord" : 0
                },
                "metallicFactor" : 0,
                "roughnessFactor" : 0.5
            }
        },
        {
            "doubleSided" : true,
            "name" : "roof2",
            "pbrMetallicRoughness" : {
                "baseColorTexture" : {
                    "index" : 5,
                    "texCoord" : 0
                },
                "metallicFactor" : 0,
                "roughnessFactor" : 0.5
            }
        },
        {
            "doubleSided" : true,
            "name" : "grass",
            "pbrMetallicRoughness" : {
                "baseColorTexture" : {
                    "index" : 6,
                    "texCoord" : 0
                },
                "metallicFactor" : 0,
                "roughnessFactor" : 0.5
            }
        },
        {
            "doubleSided" : true,
            "name" : "sky",
            "pbrMetallicRoughness" : {
                "baseColorTexture" : {
                    "index" : 7,
                    "texCoord" : 0
                },
                "metallicFactor" : 0,
                "roughnessFactor" : 0.5
            }
        }
    ],
    "meshes" : [
        {
            "name" : "Grid",
            "primitives" : [
                {
                    "attributes" : {
                        "POSITION" : 0,
                        "NORMAL" : 1,
                        "TEXCOORD_0" : 2
                    },
                    "indices" : 3,
                    "material" : 0
                },
                {
                    "attributes" : {
                        "POSITION" : 4,
                        "NORMAL" : 5,
                        "TEXCOORD_0" : 6
                    },
                    "indices" : 7,
                    "material" : 1
                },
                {
                    "attributes" : {
                        "POSITION" : 8,
                        "NORMAL" : 9,
                        "TEXCOORD_0" : 10
                    },
                    "indices" : 11,
                    "material" : 2
                },
                {
                    "attributes" : {
                        "POSITION" : 12,
                        "NORMAL" : 13,
                        "TEXCOORD_0" : 14
                    },
                    "indices" : 15,
                    "material" : 3
                },
                {
                    "attributes" : {
                        "POSITION" : 16,
                        "NORMAL" : 17,
                        "TEXCOORD_0" : 18
                    },
                    "indices" : 19,
                    "material" : 4
                },
                {
                    "attributes" : {
                        "POSITION" : 20,
                        "NORMAL" : 21,
                        "TEXCOORD_0" : 22
                    },
                    "indices" : 23,
                    "material" : 5
                }
            ]
        },
        {
            "name" : "Grid.001",
            "primitives" : [
                {
                    "attributes" : {
                        "POSITION" : 24,
                        "NORMAL" : 25,
                        "TEXCOORD_0" : 26
                    },
                    "indices" : 27,
                    "material" : 6
                },
                {
                    "attributes" : {
                        "POSITION" : 28,
                        "NORMAL" : 29,
                        "TEXCOORD_0" : 30
                    },
                    "indices" : 31,
                    "material" : 7
                }
            ]
        },
        {
            "name" : "Plane.001",
            "primitives" : [
                {
                    "attributes" : {
                        "POSITION" : 32,
                        "NORMAL" : 33,
                        "TEXCOORD_0" : 34
                    },
                    "indices" : 15,
                    "material" : 8
                }
            ]
        },
        {
            "name" : "Torus.001",
            "primitives" : [
                {
                    "attributes" : {
                        "POSITION" : 35,
                        "NORMAL" : 36,
                        "TEXCOORD_0" : 37
                    },
                    "indices" : 38,
                    "material" : 8
                }
            ]
        },
        {
            "name" : "Sphere",
            "primitives" : [
                {
                    "attributes" : {
                        "POSITION" : 39,
                        "NORMAL" : 40,
                        "TEXCOORD_0" : 41
                    },
                    "indices" : 42,
                    "material" : 9
                }
            ]
        }
    ],
    "textures" : [
        {
            "source" : 0
        },
        {
            "source" : 1
        },
        {
            "source" : 2
        },
        {
            "source" : 3
        },
        {
            "source" : 4
        },
        {
            "source" : 4
        },
        {
            "source" : 5
        },
        {
            "source" : 6
        }
    ],
    "images" : [
        {
            "mimeType" : "image/jpeg",
            "name" : "woodFloor2",
            "uri" : "woodFloor2.jpg"
        },
        {
            "mimeType" : "image/jpeg",
            "name" : "fabGray2",
            "uri" : "fabGray2.jpg"
        },
        {
            "mimeType" : "image/jpeg",
            "name" : "bricks",
            "uri" : "bricks.jpg"
        },
        {
            "mimeType" : "image/jpeg",
            "name" : "myFloorTile",
            "uri" : "myFloorTile.jpg"
        },
        {
            "mimeType" : "image/jpeg",
            "name" : "myWoodPanel2",
            "uri" : "myWoodPanel2.jpg"
        },
        {
            "mimeType" : "image/jpeg",
            "name" : "myGrass1",
            "uri" : "myGrass1.jpg"
        },
        {
            "mimeType" : "image/jpeg",
            "name" : "mySkydome_small",
            "uri" : "mySkydome_small.jpg"
        }
    ],
    "accessors" : [
        {
            "bufferView" : 0,
            "componentType" : 5126,
            "count" : 35,
            "max" : [
                10.731675148010254,
                0.4452357292175293,
                16.09671974182129
            ],
            "min" : [
                -10.743525505065918,
                0.005135059356689453,
                -16.096721649169922
            ],
            "type" : "VEC3"
        },
        {
            "bufferView" : 1,
            "componentType" : 5126,
            "count" : 35,
            "type" : "VEC3"
        },
        {
            "bufferView" : 2,
            "componentType" : 5126,
            "count" : 35,
            "type" : "VEC2"
        },
        {
            "bufferView" : 3,
            "componentType" : 5123,
            "count" : 99,
            "type" : "SCALAR"
        },
        {
            "bufferView" : 4,
            "componentType" : 5126,
            "count" : 405,
            "max" : [
                11.707819938659668,
                12.354479789733887,
                17.560054779052734
            ],
            "min" : [
                -11.719671249389648,
                0.005135059356689453,
                -17.560054779052734
            ],
            "type" : "VEC3"
        },
        {
            "bufferView" : 5,
            "componentType" : 5126,
            "count" : 405,
            "type" : "VEC3"
        },
        {
            "bufferView" : 6,
            "componentType" : 5126,
            "count" : 405,
            "type" : "VEC2"
        },
        {
            "bufferView" : 7,
            "componentType" : 5123,
            "count" : 801,
            "type" : "SCALAR"
        },
        {
            "bufferView" : 8,
            "componentType" : 5126,
            "count" : 185,
            "max" : [
                11.707819938659668,
                12.354479789733887,
                17.56005859375
            ],
            "min" : [
                -11.719671249389648,
                0.005135059356689453,
                -17.560054779052734
            ],
            "type" : "VEC3"
        },
        {
            "bufferView" : 9,
            "componentType" : 5126,
            "count" : 185,
            "type" : "VEC3"
        },
        {
            "bufferView" : 10,
            "componentType" : 5126,
            "count" : 185,
            "type" : "VEC2"
        },
        {
            "bufferView" : 11,
            "componentType" : 5123,
            "count" : 474,
            "type" : "SCALAR"
        },
        {
            "bufferView" : 12,
            "componentType" : 5126,
            "count" : 4,
            "max" : [
                2.1893956661224365,
                0.005135059356689453,
                -16.096721649169922
            ],
            "min" : [
                -2.105644702911377,
                0.005135059356689453,
                -19.307239532470703
            ],
            "type" : "VEC3"
        },
        {
            "bufferView" : 13,
            "componentType" : 5126,
            "count" : 4,
            "type" : "VEC3"
        },
        {
            "bufferView" : 14,
            "componentType" : 5126,
            "count" : 4,
            "type" : "VEC2"
        },
        {
            "bufferView" : 15,
            "componentType" : 5123,
            "count" : 6,
            "type" : "SCALAR"
        },
        {
            "bufferView" : 16,
            "componentType" : 5126,
            "count" : 76,
            "max" : [
                11.707819938659668,
                10.107250213623047,
                7.767256736755371
            ],
            "min" : [
                -11.719671249389648,
                0.005135059356689453,
                -17.560054779052734
            ],
            "type" : "VEC3"
        },
        {
            "bufferView" : 17,
            "componentType" : 5126,
            "count" : 76,
            "type" : "VEC3"
        },
        {
            "bufferView" : 18,
            "componentType" : 5126,
            "count" : 76,
            "type" : "VEC2"
        },
        {
            "bufferView" : 19,
            "componentType" : 5123,
            "count" : 114,
            "type" : "SCALAR"
        },
        {
            "bufferView" : 20,
            "componentType" : 5126,
            "count" : 366,
            "max" : [
                10.731675148010254,
                0.4452357292175293,
                16.09671974182129
            ],
            "min" : [
                -10.743525505065918,
                -0.30690380930900574,
                -16.096721649169922
            ],
            "type" : "VEC3"
        },
        {
            "bufferView" : 21,
            "componentType" : 5126,
            "count" : 366,
            "type" : "VEC3"
        },
        {
            "bufferView" : 22,
            "componentType" : 5126,
            "count" : 366,
            "type" : "VEC2"
        },
        {
            "bufferView" : 23,
            "componentType" : 5123,
            "count" : 570,
            "type" : "SCALAR"
        },
        {
            "bufferView" : 24,
            "componentType" : 5126,
            "count" : 108,
            "max" : [
                4.707935810089111,
                -0.17886096239089966,
                7.079775333404541
            ],
            "min" : [
                -4.707935810089111,
                -1.4662578105926514,
                -7.079774856567383
            ],
            "type" : "VEC3"
        },
        {
            "bufferView" : 25,
            "componentType" : 5126,
            "count" : 108,
            "type" : "VEC3"
        },
        {
            "bufferView" : 26,
            "componentType" : 5126,
            "count" : 108,
            "type" : "VEC2"
        },
        {
            "bufferView" : 27,
            "componentType" : 5123,
            "count" : 162,
            "type" : "SCALAR"
        },
        {
            "bufferView" : 28,
            "componentType" : 5126,
            "count" : 12,
            "max" : [
                1.5693120956420898,
                -0.7031235694885254,
                7.079775333404541
            ],
            "min" : [
                -1.5693118572235107,
                -0.7031235694885254,
                -7.079774856567383
            ],
            "type" : "VEC3"
        },
        {
            "bufferView" : 29,
            "componentType" : 5126,
            "count" : 12,
            "type" : "VEC3"
        },
        {
            "bufferView" : 30,
            "componentType" : 5126,
            "count" : 12,
            "type" : "VEC2"
        },
        {
            "bufferView" : 31,
            "componentType" : 5123,
            "count" : 18,
            "type" : "SCALAR"
        },
        {
            "bufferView" : 32,
            "componentType" : 5126,
            "count" : 4,
            "max" : [
                0.4397205114364624,
                0,
                0.4397205114364624
            ],
            "min" : [
                -0.4397205114364624,
                0,
                -0.4397205114364624
            ],
            "type" : "VEC3"
        },
        {
            "bufferView" : 33,
            "componentType" : 5126,
            "count" : 4,
            "type" : "VEC3"
        },
        {
            "bufferView" : 34,
            "componentType" : 5126,
            "count" : 4,
            "type" : "VEC2"
        },
        {
            "bufferView" : 35,
            "componentType" : 5126,
            "count" : 733,
            "max" : [
                8.209872245788574,
                0.8853129148483276,
                8.446414947509766
            ],
            "min" : [
                -8.069966316223145,
                -4.519320487976074,
                -8.058771133422852
            ],
            "type" : "VEC3"
        },
        {
            "bufferView" : 36,
            "componentType" : 5126,
            "count" : 733,
            "type" : "VEC3"
        },
        {
            "bufferView" : 37,
            "componentType" : 5126,
            "count" : 733,
            "type" : "VEC2"
        },
        {
            "bufferView" : 38,
            "componentType" : 5123,
            "count" : 3456,
            "type" : "SCALAR"
        },
        {
            "bufferView" : 39,
            "componentType" : 5126,
            "count" : 559,
            "max" : [
                1.000000238418579,
                1,
                1.0000003576278687
            ],
            "min" : [
                -0.9999998211860657,
                -1,
                -1
            ],
            "type" : "VEC3"
        },
        {
            "bufferView" : 40,
            "componentType" : 5126,
            "count" : 559,
            "type" : "VEC3"
        },
        {
            "bufferView" : 41,
            "componentType" : 5126,
            "count" : 559,
            "type" : "VEC2"
        },
        {
            "bufferView" : 42,
            "componentType" : 5123,
            "count" : 2880,
            "type" : "SCALAR"
        }
    ],
    "bufferViews" : [
        {
            "buffer" : 0,
            "byteLength" : 420,
            "byteOffset" : 0
        },
        {
            "buffer" : 0,
            "byteLength" : 420,
            "byteOffset" : 420
        },
        {
            "buffer" : 0,
            "byteLength" : 280,
            "byteOffset" : 840
        },
        {
            "buffer" : 0,
            "byteLength" : 198,
            "byteOffset" : 1120
        },
        {
            "buffer" : 0,
            "byteLength" : 4860,
            "byteOffset" : 1320
        },
        {
            "buffer" : 0,
            "byteLength" : 4860,
            "byteOffset" : 6180
        },
        {
            "buffer" : 0,
            "byteLength" : 3240,
            "byteOffset" : 11040
        },
        {
            "buffer" : 0,
            "byteLength" : 1602,
            "byteOffset" : 14280
        },
        {
            "buffer" : 0,
            "byteLength" : 2220,
            "byteOffset" : 15884
        },
        {
            "buffer" : 0,
            "byteLength" : 2220,
            "byteOffset" : 18104
        },
        {
            "buffer" : 0,
            "byteLength" : 1480,
            "byteOffset" : 20324
        },
        {
            "buffer" : 0,
            "byteLength" : 948,
            "byteOffset" : 21804
        },
        {
            "buffer" : 0,
            "byteLength" : 48,
            "byteOffset" : 22752
        },
        {
            "buffer" : 0,
            "byteLength" : 48,
            "byteOffset" : 22800
        },
        {
            "buffer" : 0,
            "byteLength" : 32,
            "byteOffset" : 22848
        },
        {
            "buffer" : 0,
            "byteLength" : 12,
            "byteOffset" : 22880
        },
        {
            "buffer" : 0,
            "byteLength" : 912,
            "byteOffset" : 22892
        },
        {
            "buffer" : 0,
            "byteLength" : 912,
            "byteOffset" : 23804
        },
        {
            "buffer" : 0,
            "byteLength" : 608,
            "byteOffset" : 24716
        },
        {
            "buffer" : 0,
            "byteLength" : 228,
            "byteOffset" : 25324
        },
        {
            "buffer" : 0,
            "byteLength" : 4392,
            "byteOffset" : 25552
        },
        {
            "buffer" : 0,
            "byteLength" : 4392,
            "byteOffset" : 29944
        },
        {
            "buffer" : 0,
            "byteLength" : 2928,
            "byteOffset" : 34336
        },
        {
            "buffer" : 0,
            "byteLength" : 1140,
            "byteOffset" : 37264
        },
        {
            "buffer" : 0,
            "byteLength" : 1296,
            "byteOffset" : 38404
        },
        {
            "buffer" : 0,
            "byteLength" : 1296,
            "byteOffset" : 39700
        },
        {
            "buffer" : 0,
            "byteLength" : 864,
            "byteOffset" : 40996
        },
        {
            "buffer" : 0,
            "byteLength" : 324,
            "byteOffset" : 41860
        },
        {
            "buffer" : 0,
            "byteLength" : 144,
            "byteOffset" : 42184
        },
        {
            "buffer" : 0,
            "byteLength" : 144,
            "byteOffset" : 42328
        },
        {
            "buffer" : 0,
            "byteLength" : 96,
            "byteOffset" : 42472
        },
        {
            "buffer" : 0,
            "byteLength" : 36,
            "byteOffset" : 42568
        },
        {
            "buffer" : 0,
            "byteLength" : 48,
            "byteOffset" : 42604
        },
        {
            "buffer" : 0,
            "byteLength" : 48,
            "byteOffset" : 42652
        },
        {
            "buffer" : 0,
            "byteLength" : 32,
            "byteOffset" : 42700
        },
        {
            "buffer" : 0,
            "byteLength" : 8796,
            "byteOffset" : 42732
        },
        {
            "buffer" : 0,
            "byteLength" : 8796,
            "byteOffset" : 51528
        },
        {
            "buffer" : 0,
            "byteLength" : 5864,
            "byteOffset" : 60324
        },
        {
            "buffer" : 0,
            "byteLength" : 6912,
            "byteOffset" : 66188
        },
        {
            "buffer" : 0,
            "byteLength" : 6708,
            "byteOffset" : 73100
        },
        {
            "buffer" : 0,
            "byteLength" : 6708,
            "byteOffset" : 79808
        },
        {
            "buffer" : 0,
            "byteLength" : 4472,
            "byteOffset" : 86516
        },
        {
            "buffer" : 0,
            "byteLength" : 5760,
            "byteOffset" : 90988
        }
    ],
    "buffers" : [
        {
            "byteLength" : 96748,
            "uri" : "SignLanguageSchool.bin"
        }
    ]
}
